<svg version="1.1" id="Layer_1" xmlns="http://www.w3.org/2000/svg" xmlns:xlink="http://www.w3.org/1999/xlink" x="0px" y="0px"
	 width="100%" viewBox="0 0 500 500" enable-background="new 0 0 500 500" xml:space="preserve">
<path fill="#1F3645" opacity="1.000000" stroke="none" 
	d="
M285.000000,501.000000 
	C191.333359,501.000000 98.166679,500.975891 5.000190,501.095703 
	C1.576153,501.100128 0.903036,500.423828 0.905301,497.000000 
	C1.013778,333.000092 1.013756,169.000122 0.905337,5.000248 
	C0.903074,1.576952 1.575788,0.903021 4.999875,0.905286 
	C168.999756,1.013775 332.999725,1.013761 496.999634,0.905353 
	C500.422668,0.903091 501.096985,1.575426 501.094727,4.999755 
	C500.986206,168.999634 500.986237,332.999603 501.094604,496.999512 
	C501.096893,500.422272 500.425690,501.102692 497.000244,501.096466 
	C426.500336,500.968201 356.000153,501.000000 285.000000,501.000000 
z"/>
<path fill="#FCFDFD" opacity="1.000000" stroke="none" 
	d="
M255.913696,288.196686 
	C243.498627,256.068481 231.251526,224.289230 218.814178,192.584625 
	C217.379028,188.926208 217.932266,188.023544 221.795975,188.169922 
	C228.118744,188.409454 234.466995,188.445389 240.785248,188.152298 
	C244.332504,187.987762 245.958542,189.089294 247.162689,192.548065 
	C257.595886,222.516144 268.248077,252.408005 278.842102,282.320068 
	C279.280304,283.557312 279.788086,284.769928 280.619293,286.910278 
	C284.908508,274.694489 288.920166,263.316833 292.898743,251.927597 
	C299.856873,232.008835 306.886658,212.114090 313.645538,192.127808 
	C314.706177,188.991547 316.115082,188.070190 319.267395,188.163940 
	C326.700836,188.385010 334.145325,188.234863 342.225311,188.234863 
	C337.023987,201.792450 332.034363,214.781723 327.056915,227.775696 
	C316.597290,255.081070 306.072968,282.362152 295.778625,309.729736 
	C294.499268,313.130920 292.866882,314.247833 289.329681,314.088715 
	C282.844299,313.796997 276.331390,313.855408 269.840240,314.073456 
	C266.904572,314.172058 265.417511,313.338013 264.402527,310.442291 
	C261.820831,303.076904 258.843781,295.850128 255.913696,288.196686 
z"/>
<path fill="#FCFDFD" opacity="1.000000" stroke="none" 
	d="
M175.612946,216.722900 
	C164.601151,247.936676 153.775467,278.825500 143.149002,309.782684 
	C142.098038,312.844421 140.793015,313.964325 137.582031,313.836700 
	C131.426483,313.592072 125.246109,313.573456 119.092049,313.836151 
	C115.276672,313.999023 114.617966,313.106567 116.037079,309.477417 
	C124.628563,287.506226 133.019226,265.456543 141.475937,243.432678 
	C147.967163,226.527527 154.630493,209.684921 160.817078,192.668991 
	C162.248260,188.732620 164.130936,187.721191 167.996246,187.908310 
	C174.479599,188.222183 180.992355,188.112122 187.486099,187.935699 
	C190.048782,187.866089 191.189926,188.687515 192.132523,191.137894 
	C207.342987,230.678940 222.645813,270.184631 238.041321,309.654022 
	C239.320709,312.934021 239.040756,313.982056 235.258804,313.836853 
	C228.603455,313.581360 221.923340,313.573364 215.269455,313.847382 
	C211.991257,313.982391 210.783569,312.732300 209.745911,309.761566 
	C199.281708,279.803497 188.649063,249.904190 178.021866,220.003250 
	C177.559402,218.702057 177.729416,216.907867 175.612946,216.722900 
z"/>
<path fill="#F8F9F9" opacity="1.000000" stroke="none" 
	d="
M351.292542,212.999878 
	C351.292908,205.677307 351.395844,198.852448 351.243530,192.033279 
	C351.181946,189.276413 351.972076,188.120041 354.889404,188.262909 
	C359.039551,188.466156 363.230927,188.592087 367.360565,188.237549 
	C371.612061,187.872543 373.002594,188.986481 372.967682,193.612534 
	C372.729187,225.227524 372.842743,256.845154 372.842712,288.461945 
	C372.842682,296.116547 372.723175,303.773926 372.904205,311.424255 
	C372.971222,314.257111 372.139526,315.214722 369.275208,315.074036 
	C364.793121,314.853821 360.267792,314.726013 355.806702,315.102875 
	C351.882355,315.434357 351.197815,313.938995 351.212982,310.346802 
	C351.349274,278.064972 351.292542,245.782303 351.292542,212.999878 
z"/>
<path fill="#F0F1F2" opacity="1.000000" stroke="none" 
	d="
M397.057312,243.787689 
	C398.281097,242.831696 401.621521,242.583069 398.083679,240.807800 
	C396.156830,239.840942 394.214386,238.889938 392.219116,238.079086 
	C390.280609,237.291321 390.750732,235.694183 390.774963,234.270874 
	C390.808960,232.275070 392.324707,232.491669 393.656647,232.492722 
	C397.648499,232.495880 401.640747,232.529739 405.632050,232.483398 
	C407.210785,232.465073 408.134949,232.835587 408.049500,234.699402 
	C407.968719,236.461288 406.835052,236.330170 405.657532,236.419907 
	C403.787811,236.562408 401.816620,236.025787 399.821777,237.016541 
	C407.271759,242.002487 407.271759,242.002487 399.820312,247.035645 
	C402.010437,248.038208 404.145905,247.462433 406.183014,247.597473 
	C407.358429,247.675400 408.012238,248.041779 408.034760,249.337860 
	C408.058228,250.688293 407.770844,251.594482 406.163239,251.585434 
	C401.672760,251.560150 397.181824,251.564667 392.691406,251.601654 
	C391.441925,251.611954 390.802704,251.007874 390.784912,249.851410 
	C390.763000,248.427750 390.245636,246.789932 392.145050,245.992523 
	C393.673981,245.350632 395.170105,244.630524 397.057312,243.787689 
z"/>
<path fill="#F3F4F5" opacity="1.000000" stroke="none" 
	d="
M396.734985,200.098145 
	C398.886078,201.299316 400.611115,201.021317 402.252991,199.964203 
	C403.979584,198.852509 404.409912,197.162811 404.293823,195.219864 
	C404.176483,193.256393 403.035217,192.743988 401.289642,192.888718 
	C399.498718,193.037231 398.996399,192.004364 399.126312,190.417435 
	C399.273926,188.614578 400.679840,189.166428 401.723755,188.962524 
	C405.806091,188.165237 407.413177,190.361710 407.993408,193.975647 
	C408.834869,199.216660 406.320007,203.954056 401.876038,205.006180 
	C398.005280,205.922592 394.546112,205.096008 392.270966,201.584030 
	C390.009979,198.093811 390.145477,194.380737 391.922028,190.710144 
	C392.321808,189.884171 392.802673,188.745331 394.071045,189.612457 
	C395.163696,190.359482 396.165985,191.065994 395.188293,192.790482 
	C393.732208,195.358719 393.917114,197.878708 396.734985,200.098145 
z"/>
<path fill="#F7F7F8" opacity="1.000000" stroke="none" 
	d="
M390.786835,221.539764 
	C390.783478,218.607346 390.748688,216.121109 390.805359,213.636948 
	C390.829987,212.556427 390.548035,211.218079 392.350616,211.128662 
	C394.102112,211.041779 394.084900,212.216492 394.117249,213.404373 
	C394.121765,213.569977 394.076843,213.751541 394.129486,213.899017 
	C394.806519,215.795090 392.442657,219.370544 396.085022,219.436569 
	C399.846252,219.504745 397.558197,215.937912 398.015198,214.043137 
	C398.319580,212.781158 398.391541,211.808777 400.012177,211.935059 
	C401.262054,212.032455 401.780182,212.719650 401.700623,213.861786 
	C401.453461,217.408920 401.450928,220.627884 406.608551,219.761887 
	C407.976044,219.532303 408.037262,220.819565 408.000183,221.829056 
	C407.972168,222.591812 408.262329,223.832794 407.203308,223.844711 
	C401.819458,223.905426 396.406525,224.639877 391.069885,223.383575 
	C390.878418,223.338501 390.880585,222.470993 390.786835,221.539764 
z"/>
</svg>