<svg version="1.1" id="Layer_1" xmlns="http://www.w3.org/2000/svg" xmlns:xlink="http://www.w3.org/1999/xlink" x="0px" y="0px"
	 width="100%" viewBox="0 0 192 192" enable-background="new 0 0 192 192" xml:space="preserve">
<path fill="#203746" opacity="1.000000" stroke="none" 
	d="
M100.000000,193.000000 
	C66.666672,193.000000 33.833336,193.000000 1.000004,193.000000 
	C1.000003,129.000000 1.000003,65.000015 1.000001,1.000013 
	C64.999992,1.000009 128.999985,1.000009 192.999969,1.000004 
	C192.999985,64.999985 192.999985,128.999969 193.000000,192.999969 
	C162.166672,193.000000 131.333328,193.000000 100.000000,193.000000 
M150.815140,74.568375 
	C151.524139,75.702049 152.233124,76.835724 153.643539,78.137672 
	C154.909409,77.993408 156.175262,77.849152 157.441132,77.704895 
	C157.201538,76.465164 156.961945,75.225426 156.578888,73.366142 
	C155.760742,73.275681 154.942581,73.185219 153.418350,73.096642 
	C152.603195,73.378204 151.788040,73.659767 150.815140,74.568375 
M48.672211,121.067879 
	C53.681583,122.057770 56.345566,120.114349 57.215244,114.966553 
	C57.734592,111.892387 59.174397,108.970161 60.233921,105.991547 
	C62.774700,98.848740 65.335266,91.712959 68.330597,83.336136 
	C72.695366,95.677742 76.525345,106.666611 80.520302,117.595169 
	C81.002762,118.914986 82.241447,120.705750 83.364563,120.896744 
	C86.166382,121.373192 89.103539,121.053741 92.602585,121.053741 
	C86.442055,105.139709 80.654991,90.104973 74.792412,75.099747 
	C73.102768,70.775108 69.294312,73.260002 66.503090,73.022697 
	C65.103661,72.903725 62.723606,74.308228 62.190331,75.602104 
	C58.070400,85.598091 54.283806,95.731758 50.415413,105.830994 
	C48.537327,110.734138 46.705334,115.654945 44.751621,120.835167 
	C46.157959,120.942024 46.978428,121.004372 48.672211,121.067879 
M103.145790,96.211372 
	C100.433067,88.539780 97.720352,80.868187 95.014526,73.216095 
	C91.348358,73.216095 87.954987,73.216095 84.135689,73.216095 
	C89.918396,88.166611 95.613365,102.703629 101.124306,117.310081 
	C102.117676,119.942955 103.139786,121.681175 106.325630,121.185013 
	C109.605347,120.674232 113.306664,122.626480 115.160057,117.365158 
	C120.075577,103.411224 125.663895,89.694534 130.953690,75.871658 
	C131.266876,75.053223 131.308136,74.130730 131.483612,73.216690 
	C121.735664,72.496788 121.768402,72.508194 118.876503,80.805611 
	C115.528336,90.412178 112.115036,99.996033 108.354027,110.655342 
	C106.445847,105.344414 104.936523,101.143600 103.145790,96.211372 
M143.847748,111.451157 
	C143.847748,98.695053 143.847748,85.938950 143.847748,73.230339 
	C140.648666,73.230339 138.233765,73.230339 135.706696,73.230339 
	C135.706696,89.469925 135.706696,105.393936 135.706696,121.343178 
	C138.549576,121.343178 141.068542,121.343178 143.847748,121.343178 
	C143.847748,118.073318 143.847748,115.251350 143.847748,111.451157 
z"/>
<path fill="#F7F8F8" opacity="1.000000" stroke="none" 
	d="
M48.235554,121.067291 
	C46.978428,121.004372 46.157959,120.942024 44.751621,120.835167 
	C46.705334,115.654945 48.537327,110.734138 50.415413,105.830994 
	C54.283806,95.731758 58.070400,85.598091 62.190331,75.602104 
	C62.723606,74.308228 65.103661,72.903725 66.503090,73.022697 
	C69.294312,73.260002 73.102768,70.775108 74.792412,75.099747 
	C80.654991,90.104973 86.442055,105.139709 92.602585,121.053741 
	C89.103539,121.053741 86.166382,121.373192 83.364563,120.896744 
	C82.241447,120.705750 81.002762,118.914986 80.520302,117.595169 
	C76.525345,106.666611 72.695366,95.677742 68.330597,83.336136 
	C65.335266,91.712959 62.774700,98.848740 60.233921,105.991547 
	C59.174397,108.970161 57.734592,111.892387 57.215244,114.966553 
	C56.345566,120.114349 53.681583,122.057770 48.235554,121.067291 
z"/>
<path fill="#F8F8F9" opacity="1.000000" stroke="none" 
	d="
M103.286499,96.577080 
	C104.936523,101.143600 106.445847,105.344414 108.354027,110.655342 
	C112.115036,99.996033 115.528336,90.412178 118.876503,80.805611 
	C121.768402,72.508194 121.735664,72.496788 131.483612,73.216690 
	C131.308136,74.130730 131.266876,75.053223 130.953690,75.871658 
	C125.663895,89.694534 120.075577,103.411224 115.160057,117.365158 
	C113.306664,122.626480 109.605347,120.674232 106.325630,121.185013 
	C103.139786,121.681175 102.117676,119.942955 101.124306,117.310081 
	C95.613365,102.703629 89.918396,88.166611 84.135689,73.216095 
	C87.954987,73.216095 91.348358,73.216095 95.014526,73.216095 
	C97.720352,80.868187 100.433067,88.539780 103.286499,96.577080 
z"/>
<path fill="#E9EBED" opacity="1.000000" stroke="none" 
	d="
M143.847748,111.940262 
	C143.847748,115.251350 143.847748,118.073318 143.847748,121.343178 
	C141.068542,121.343178 138.549576,121.343178 135.706696,121.343178 
	C135.706696,105.393936 135.706696,89.469925 135.706696,73.230339 
	C138.233765,73.230339 140.648666,73.230339 143.847748,73.230339 
	C143.847748,85.938950 143.847748,98.695053 143.847748,111.940262 
z"/>
<path fill="#50626E" opacity="1.000000" stroke="none" 
	d="
M156.722351,73.985695 
	C156.961945,75.225426 157.201538,76.465164 157.441132,77.704895 
	C156.175262,77.849152 154.909409,77.993408 153.179657,77.723213 
	C152.134827,76.186279 151.553848,75.063812 150.972870,73.941345 
	C151.788040,73.659767 152.603195,73.378204 153.775772,73.384674 
	C154.996246,73.777031 155.859299,73.881363 156.722351,73.985695 
z"/>
<path fill="#E1E4E6" opacity="1.000000" stroke="none" 
	d="
M150.894012,74.254860 
	C151.553848,75.063812 152.134827,76.186279 152.828949,77.639084 
	C152.233124,76.835724 151.524139,75.702049 150.894012,74.254860 
z"/>
<path fill="#B6BEC3" opacity="1.000000" stroke="none" 
	d="
M156.650620,73.675919 
	C155.859299,73.881363 154.996246,73.777031 154.128815,73.383728 
	C154.942581,73.185219 155.760742,73.275681 156.650620,73.675919 
z"/>
</svg>